<?xml version="1.0" encoding="UTF-8"?>
<svg id="Camada_2" data-name="Camada 2" xmlns="http://www.w3.org/2000/svg" viewBox="0 0 482.4 61.26">
  <defs>
    <style>
      .cls-1 {
        fill: #0c2544;
      }

      .cls-2 {
        fill: #2767e2;
      }
    </style>
  </defs>
  <g id="Camada_1-2" data-name="Camada 1">
    <g>
      <g>
        <g>
          <path class="cls-2" d="M52.66,35.6c-1.64-2.39-4.01-4.27-7.11-5.65v-.86c2.41-1.32,4.25-3.05,5.52-5.18,1.26-2.12,1.89-4.48,1.89-7.07,0-3.22-.94-6.06-2.84-8.53-1.9-2.47-4.61-4.4-8.15-5.78-3.53-1.38-7.72-2.07-12.54-2.07H.38v60.36h30.78c4.89,0,9.14-.72,12.76-2.16,3.62-1.43,6.4-3.43,8.32-5.99,1.93-2.56,2.89-5.5,2.89-8.84,0-3.1-.82-5.85-2.46-8.23ZM17.96,14.43h11.47c1.95,0,3.43.39,4.44,1.16,1,.78,1.51,1.86,1.51,3.24,0,.97-.22,1.79-.65,2.45-.43.67-1.09,1.17-1.98,1.51-.9.35-2,.52-3.32.52h-11.47v-8.88ZM36.8,44.69c-.49.69-1.21,1.23-2.16,1.6-.95.37-2.11.56-3.49.56h-13.19v-9.57h13.19c2.07,0,3.65.42,4.74,1.25,1.09.83,1.64,2.02,1.64,3.58,0,1.03-.24,1.89-.73,2.58Z"/>
          <g>
            <path class="cls-2" d="M36.48,44.5c-1.42,1.85-3.86,1.97-6,1.97h-12.51l.38.38v-9.57l-.38.38h6.98c2.48,0,5.04-.19,7.51.06,1.43.15,2.97.61,3.89,1.79,1.08,1.38,1.07,3.55.13,5-.26.41.38.78.65.38,1.34-2.06.98-5.13-1.01-6.64-1.49-1.14-3.44-1.33-5.26-1.33-3.19,0-6.38,0-9.57,0h-3.33c-.2,0-.38.17-.38.38v9.57c0,.2.17.38.38.38h8.88c3.38,0,7.98.66,10.28-2.35.29-.38-.36-.76-.65-.38Z"/>
            <path class="cls-2" d="M17.96,14.8c3.82,0,7.65-.03,11.47,0,2.12.02,4.73.5,5.42,2.84.32,1.1.19,2.47-.44,3.44-.71,1.08-2.03,1.54-3.26,1.73-2.11.32-4.38.12-6.5.12h-6.69l.38.38v-8.88c0-.48-.75-.48-.75,0v8.88c0,.2.17.38.38.38h6.51c2.35,0,4.96.26,7.28-.22,2.09-.43,3.7-1.74,3.96-3.94s-.7-3.98-2.65-4.83c-2.21-.97-5.04-.64-7.41-.64h-7.7c-.48,0-.48.75,0,.75Z"/>
            <path class="cls-2" d="M52.99,35.41c-1.08-1.53-2.38-2.83-3.91-3.91-.79-.55-1.67-1.18-2.58-1.52-.48-.18-.57,0-.57-.46,0-.51.2-.31.69-.62,3.38-2.12,5.81-5.49,6.5-9.45s-.22-8.14-2.7-11.37-6-5.2-9.74-6.41C35.93.12,31.01.08,26.09.08H.38c-.2,0-.38.17-.38.38v60.36c0,.2.17.38.38.38h21.13c9.23,0,19.49.91,27.4-4.78,6.64-4.78,8.73-14.06,4.09-21-.27-.4-.92-.02-.65.38,2.22,3.32,2.93,7.44,2.06,11.34s-3.22,6.85-6.35,8.96c-5.09,3.43-11.35,4.35-17.37,4.35-7.42,0-14.84,0-22.26,0H.38l.38.38V.46l-.38.38h20.13c9.19,0,19.81-.97,27.23,5.49,3.38,2.94,5.13,7.11,4.82,11.58-.33,4.73-3.12,8.57-7.19,10.86-.11.06-.19.19-.19.32v.86c0,.12.07.27.19.32,2.76,1.26,5.21,3.01,6.98,5.52.28.39.93.02.65-.38Z"/>
          </g>
        </g>
        <g>
          <path class="cls-1" d="M378.52,35.6c-1.64-2.39-4.01-4.27-7.11-5.65v-.86c2.41-1.32,4.25-3.05,5.52-5.18,1.26-2.12,1.89-4.48,1.89-7.07,0-3.22-.94-6.06-2.84-8.53-1.9-2.47-4.61-4.4-8.15-5.78-3.53-1.38-7.72-2.07-12.54-2.07h-29.06v60.36h30.78c4.88,0,9.14-.72,12.76-2.16,3.62-1.43,6.4-3.43,8.32-5.99,1.93-2.56,2.89-5.5,2.89-8.84,0-3.1-.82-5.85-2.46-8.23ZM343.82,14.43h11.47c1.95,0,3.43.39,4.44,1.16,1,.78,1.5,1.86,1.5,3.24,0,.97-.21,1.79-.64,2.45-.43.67-1.09,1.17-1.99,1.51-.89.35-1.99.52-3.31.52h-11.47v-8.88ZM362.65,44.69c-.49.69-1.21,1.23-2.16,1.6-.95.37-2.11.56-3.49.56h-13.19v-9.57h13.19c2.07,0,3.65.42,4.74,1.25,1.09.83,1.64,2.02,1.64,3.58,0,1.03-.25,1.89-.73,2.58Z"/>
          <g>
            <path class="cls-1" d="M362.33,44.5c-1.42,1.85-3.86,1.97-6,1.97h-12.51l.38.38v-9.57l-.38.38h6.98c2.48,0,5.04-.19,7.51.06,1.43.15,2.97.61,3.89,1.79,1.09,1.39,1.06,3.54.13,5-.26.41.39.78.65.38,1.33-2.07.99-5.12-1.01-6.64-1.49-1.14-3.44-1.33-5.26-1.33-3.19,0-6.38,0-9.57,0h-3.33c-.2,0-.38.17-.38.38v9.57c0,.2.17.38.38.38h8.88c3.38,0,7.98.66,10.28-2.35.29-.38-.36-.76-.65-.38Z"/>
            <path class="cls-1" d="M343.82,14.8c3.82,0,7.65-.03,11.47,0,2.11.02,4.73.5,5.41,2.84.32,1.1.2,2.47-.44,3.44-.71,1.08-2.04,1.54-3.26,1.73-2.1.32-4.38.12-6.5.12h-6.69l.38.38v-8.88c0-.48-.75-.48-.75,0v8.88c0,.2.17.38.38.38h6.51c2.35,0,4.96.26,7.27-.22,2.09-.43,3.7-1.74,3.96-3.94.24-2.09-.69-3.98-2.64-4.83-2.21-.97-5.04-.64-7.41-.64h-7.7c-.48,0-.48.75,0,.75Z"/>
            <path class="cls-1" d="M378.84,35.41c-1.08-1.53-2.38-2.83-3.91-3.91-.79-.55-1.67-1.18-2.58-1.52-.48-.18-.57,0-.57-.46,0-.51.2-.31.69-.62,3.38-2.12,5.81-5.49,6.5-9.45s-.22-8.14-2.7-11.37-6-5.2-9.74-6.41c-4.74-1.54-9.67-1.58-14.59-1.58h-25.71c-.2,0-.38.17-.38.38v60.36c0,.2.17.38.38.38h21.13c9.23,0,19.49.91,27.4-4.78,6.64-4.78,8.73-14.06,4.09-21-.27-.4-.92-.02-.65.38,2.22,3.32,2.93,7.44,2.06,11.34s-3.22,6.85-6.35,8.96c-5.09,3.43-11.35,4.35-17.37,4.35-7.42,0-14.84,0-22.26,0h-8.05l.38.38V.46l-.38.38h20.13c9.19,0,19.81-.97,27.23,5.49,3.38,2.94,5.13,7.11,4.82,11.58-.33,4.73-3.12,8.57-7.19,10.86-.11.06-.19.19-.19.32v.86c0,.12.07.27.19.32,2.76,1.26,5.21,3.01,6.98,5.52.28.39.93.02.65-.38Z"/>
          </g>
        </g>
        <g>
          <polygon class="cls-1" points="482.02 .46 482.02 16.15 464.35 16.15 464.35 60.82 446.77 60.82 446.77 16.15 400.28 16.15 400.28 23.05 426.51 23.05 426.51 37.02 400.28 37.02 400.28 45.64 429.08 45.64 429.08 60.82 382.7 60.82 382.7 .46 482.02 .46"/>
          <path class="cls-1" d="M481.65.46v15.69l.38-.38h-17.67c-.2,0-.38.17-.38.38v44.67l.38-.38h-17.59l.38.38V16.15c0-.2-.17-.38-.38-.38h-46.48c-.2,0-.38.17-.38.38v6.9c0,.2.17.38.38.38h26.22l-.38-.38v13.97l.38-.38h-26.22c-.2,0-.38.17-.38.38v8.62c0,.2.17.38.38.38h28.8l-.38-.38v15.18l.38-.38h-46.39l.38.38V.46l-.38.38h95.28c1.23,0,2.66.2,3.88,0,.05,0,.12,0,.17,0,.48,0,.48-.75,0-.75h-95.28c-1.24,0-2.65-.18-3.88,0-.06,0-.12,0-.17,0-.2,0-.38.17-.38.38v60.36c0,.2.17.38.38.38h46.39c.2,0,.38-.17.38-.38v-15.18c0-.2-.17-.38-.38-.38h-28.8l.38.38v-8.62l-.38.38h26.22c.2,0,.38-.17.38-.38v-13.97c0-.2-.17-.38-.38-.38h-26.22l.38.38v-6.9l-.38.38h46.48l-.38-.38v44.67c0,.2.17.38.38.38h17.59c.2,0,.38-.17.38-.38V16.15l-.38.38h17.67c.2,0,.38-.17.38-.38V.46c0-.48-.75-.48-.75,0Z"/>
        </g>
      </g>
      <g>
        <path class="cls-2" d="M302.14,38.66c.34-.13.68-.27,1.01-.43,3.53-1.67,6.2-4.01,8.02-7.03,1.81-3.02,2.71-6.48,2.71-10.39s-.9-7.56-2.71-10.61c-1.82-3.04-4.49-5.43-8.02-7.15-3.54-1.73-7.78-2.59-12.72-2.59h-30.61v44.66h-30.95v-8.1h26.21v-13.97h-26.21v-7.41h28.28V.46H56.84v60.36h46.39v-15.18h-28.8v-8.62h26.22v-13.97h-26.22v-6.9h46.48v44.67h17.59V16.15h36.21v44.67h17.59V16.15h18.97v44.67h66.13v-20.09h6.71l12.52,20.09h19.92l-14.42-22.16ZM295.55,23.61c-.49.78-1.22,1.37-2.2,1.77s-2.15.6-3.53.6h-12.42v-10.34h12.42c2.06,0,3.66.44,4.78,1.33,1.12.89,1.68,2.17,1.68,3.84,0,1.09-.24,2.03-.73,2.8Z"/>
        <g>
          <path class="cls-2" d="M295.23,23.42c-1.97,2.92-6.83,2.18-9.94,2.18h-7.88l.38.38v-10.34l-.38.38h11.1c1.14,0,2.29-.04,3.41.19,1.43.29,2.82,1,3.51,2.35.75,1.48.63,3.46-.2,4.87-.25.42.4.79.65.38,1.22-2.07,1.09-5.13-.71-6.83-1.47-1.4-3.57-1.7-5.52-1.7-2.98,0-5.96,0-8.94,0h-3.3c-.2,0-.38.17-.38.38v10.34c0,.2.17.38.38.38h8.6c3.33,0,7.75.59,9.87-2.56.27-.4-.38-.78-.65-.38Z"/>
          <path class="cls-2" d="M302.23,39.02c3.66-1.44,6.93-3.96,9.05-7.3,2.39-3.77,3.22-8.32,2.9-12.73-.29-4.11-1.68-8.11-4.34-11.29s-6.22-5.2-10.05-6.36C295.34,0,290.75.08,286.17.08h-26.35c-.2,0-.38.17-.38.38v44.66l.38-.38h-30.95l.38.38v-8.1l-.38.38h26.21c.2,0,.38-.17.38-.38v-13.97c0-.2-.17-.38-.38-.38h-26.21l.38.38v-7.41l-.38.38h28.28c.2,0,.38-.17.38-.38V.46c0-.2-.17-.38-.38-.38H64.99c-2.59,0-5.22-.13-7.81,0-.11,0-.22,0-.33,0-.2,0-.38.17-.38.38v60.36c0,.2.17.38.38.38h46.39c.2,0,.38-.17.38-.38v-15.18c0-.2-.17-.38-.38-.38h-28.8l.38.38v-8.62l-.38.38h26.22c.2,0,.38-.17.38-.38v-13.97c0-.2-.17-.38-.38-.38h-26.22l.38.38v-6.9l-.38.38h46.48l-.38-.38v44.67c0,.2.17.38.38.38h17.59c.2,0,.38-.17.38-.38V16.15l-.38.38h36.21l-.38-.38v44.67c0,.2.17.38.38.38h17.59c.2,0,.38-.17.38-.38V16.15l-.38.38h18.97l-.38-.38v44.67c0,.2.17.38.38.38h66.13c.2,0,.38-.17.38-.38v-20.09l-.38.38h5.61c.28,0,.72.09.98,0,.19-.07-.22-.29-.16-.11.12.35.45.72.64,1.03l6.73,10.8,3.47,5.56c.46.75.95,2.01,1.62,2.6.51.45,1.65.21,2.29.21h17.96c.27,0,.48-.32.32-.56-4.2-6.45-8.4-12.91-12.6-19.36-.61-.93-1.21-1.86-1.82-2.8-.26-.4-.91-.03-.65.38,4.2,6.45,8.4,12.91,12.6,19.36.61.93,1.21,1.86,1.82,2.8l.32-.56h-16.71c-1.05,0-2.16-.1-3.21,0,.41-.04.26.35.22.03-.02-.14-.22-.36-.3-.48l-1.05-1.69-3.32-5.33c-2.3-3.69-4.59-7.37-6.89-11.06-.51-.81-.68-1.57-1.69-1.57-2.07-.01-4.14,0-6.21,0-.2,0-.38.17-.38.38v20.09l.38-.38h-66.13l.38.38V16.15c0-.2-.17-.38-.38-.38h-18.97c-.2,0-.38.17-.38.38v44.67l.38-.38h-17.59l.38.38V16.15c0-.2-.17-.38-.38-.38h-36.21c-.2,0-.38.17-.38.38v44.67l.38-.38h-17.59l.38.38V16.15c0-.2-.17-.38-.38-.38h-46.48c-.2,0-.38.17-.38.38v6.9c0,.2.17.38.38.38h26.22l-.38-.38v13.97l.38-.38h-26.22c-.2,0-.38.17-.38.38v8.62c0,.2.17.38.38.38h28.8l-.38-.38v15.18l.38-.38h-46.39l.38.38V.46l-.38.38h197.29c.83,0,1.87.17,2.68,0,.1-.02.23,0,.33,0l-.38-.38v15.18l.38-.38h-28.28c-.2,0-.38.17-.38.38v7.41c0,.2.17.38.38.38h26.21l-.38-.38v13.97l.38-.38h-26.21c-.2,0-.38.17-.38.38v8.1c0,.2.17.38.38.38h30.95c.2,0,.38-.17.38-.38V.46l-.38.38h22.9c2.8,0,5.61-.04,8.42,0,8.68.15,17.83,3.7,21.08,12.41,1.73,4.64,1.78,10.17.05,14.81s-5.55,8.39-10.23,10.23c-.44.17-.25.9.2.72Z"/>
        </g>
      </g>
    </g>
  </g>
</svg>